<svg width="290" height="192" viewBox="0 0 290 192" fill="none" xmlns="http://www.w3.org/2000/svg">
<path d="M290 186.898C290 189.719 287.724 192 284.919 192H5.08148C2.27466 192 0 189.719 0 186.898V186.547C0 183.73 2.27466 181.444 5.08148 181.444H284.919C287.724 181.444 290 183.73 290 186.547V186.898Z" fill="#F1ECE2"/>
<path d="M129.473 50.0273V22.8797C129.473 11.3501 138.781 1.99956 150.262 1.99956C161.745 1.99956 171.052 11.3501 171.052 22.8797V50.0273" stroke="#B31D2D" stroke-width="4" stroke-miterlimit="10" stroke-linecap="round" stroke-linejoin="round"/>
<path d="M102.633 46.3322V162.443H197.896V46.3322H102.633Z" fill="#EF4742"/>
<path d="M150 46.3322V162.443H197.895V46.3322H150Z" fill="#EF4742"/>
<path d="M99.4727 57.4175V181.445H201.052V57.4175H99.4727Z" fill="#F4695B"/>
<path d="M150 57.4175V181.445H201.053V57.4175H150Z" fill="#F2574F"/>
<path d="M201.053 57.416L182.105 51.0827V57.416H201.053Z" fill="#F4695B"/>
<path d="M182.105 51.2104L197.895 46.3335V56.3613L182.105 51.2104Z" fill="#F2574F"/>
<path d="M99.4727 57.416L118.42 51.0827V57.416H99.4727Z" fill="#F2574F"/>
<path d="M118.422 51.2104L102.633 46.3335V56.3613L118.422 51.2104Z" fill="#F4695B"/>
<path d="M171.052 67.4449V94.5902C171.052 106.119 161.745 115.473 150.262 115.473C138.778 115.473 129.473 106.119 129.473 94.5902V67.4449" stroke="#B31D2D" stroke-width="4" stroke-miterlimit="10" stroke-linecap="round" stroke-linejoin="round"/>
<path d="M182.633 86.4449V172.473H252.633V86.4449H182.633Z" fill="#E69123"/>
<path d="M217.367 86.4449V172.473H252.63V86.4449H217.367Z" fill="#E69123"/>
<path d="M180 94.3615V186.723H255.263V94.3615H180Z" fill="#EAB957"/>
<path d="M217.367 94.3615V186.723H255.262V94.3615H217.367Z" fill="#EDA738"/>
<path d="M255.261 94.3613L241.051 90.1391V94.3613H255.261Z" fill="#EAB957"/>
<path d="M241.051 90.0396L252.63 86.4451V93.834L241.051 90.0396Z" fill="#EDA738"/>
<path d="M180 94.3613L194.211 90.1391V94.3613H180Z" fill="#EDA738"/>
<path d="M194.212 90.0396L182.633 86.4451V93.834L194.212 90.0396Z" fill="#EAB957"/>
<path d="M232.632 102.278V122.263C232.632 130.754 225.798 137.639 217.368 137.639C208.937 137.639 202.105 130.754 202.105 122.263V102.278" stroke="#B6471F" stroke-width="4" stroke-miterlimit="10" stroke-linecap="round" stroke-linejoin="round"/>
<path d="M31.5781 109.139V180.389H128.42V109.139H31.5781Z" fill="#299FC8"/>
<path d="M60.5273 109.139V180.389H128.422V109.139H60.5273Z" fill="#299FC8"/>
<path d="M29.4727 116V192H130.525V116H29.4727Z" fill="#C9E4F7"/>
<path d="M80 116V192H130.526V116H80Z" fill="#8FD8F3"/>
<path d="M130.524 116L118.945 112.306V116H130.524Z" fill="#C9E4F7"/>
<path d="M118.945 112.223L128.419 109.139V115.473L118.945 112.223Z" fill="#8FD8F3"/>
<path d="M29.4727 116L41.0516 112.306V116H29.4727Z" fill="#8FD8F3"/>
<path d="M41.0518 112.223L31.5781 109.139V115.473L41.0518 112.223Z" fill="#C9E4F7"/>
<path d="M98.4202 122.861V147.026C98.4202 157.29 90.173 165.611 79.9987 165.611C69.8236 165.611 61.5781 157.29 61.5781 147.026V122.861" stroke="#2890B7" stroke-width="4" stroke-miterlimit="10" stroke-linecap="round" stroke-linejoin="round"/>
</svg>
