<svg id="Logo" xmlns="http://www.w3.org/2000/svg" width="128.656" height="60" viewBox="0 0 128.656 60">
  <path id="Path_1" data-name="Path 1" d="M1238.065,250.558c4.32,0,6.146,2.86,6.48,4.959h3.8c-.365-4.807-4.29-8.732-10.283-8.732-6.572,0-11.044,5.233-11.044,11.713s4.5,11.744,11.044,11.713c5.659-.03,9.888-4.35,10.283-8.519h-3.8c-.3,2.008-2.434,4.746-6.48,4.746-4.564,0-7.3-3.5-7.3-7.941S1233.5,250.558,1238.065,250.558Z" transform="translate(-1170.102 -228.497)" fill="#191919"/>
  <path id="Path_2" data-name="Path 2" d="M1320.776,279.7v-5.476c0-4.229-2.647-6.237-6.693-6.237-4.868,0-6.815,2.921-7.058,6.024h3.438c.183-2.039,1.734-2.83,3.5-2.83,1.917,0,3.042.852,3.042,2.982v.365l-3.56.3c-4.046.335-6.845,2.251-6.845,5.294,0,3.134,2.282,4.959,5.477,4.959,2.282,0,4.381-.852,5.324-2.1.7,1.7,2.19,1.825,3.56,1.886.426.03.821,0,1.125,0V281.8C1321.415,281.8,1320.776,281.343,1320.776,279.7Zm-3.773.121a4.733,4.733,0,0,1-3.955,2.191,2.191,2.191,0,0,1-2.434-2.069c0-1.308,1.247-2.13,3.59-2.4l2.8-.3Z" transform="translate(-1226.268 -243.462)" fill="#191919"/>
  <path id="Path_3" data-name="Path 3" d="M1382.145,253.9h-4.32l-5.111,6.328V247.82h-4.168v22.818h4.168v-7.3l5.781,7.3h4.411l-7.21-9.036Z" transform="translate(-1269.992 -229.228)" fill="#191919"/>
  <path id="Path_4" data-name="Path 4" d="M1433.06,276.445c0-5.141-2.921-8.458-7.7-8.458-5.172,0-8.062,3.651-8.062,8.519s3.195,8.519,8.062,8.519c4.594,0,6.906-2.708,7.363-5.416h-3.347a4.309,4.309,0,0,1-8.093-1.856h11.683A10.2,10.2,0,0,0,1433.06,276.445Zm-11.683-1.582c.365-2.19,1.643-3.651,3.955-3.651,2.252,0,3.469,1.4,3.773,3.651Z" transform="translate(-1304.404 -243.462)" fill="#191919"/>
  <path id="Path_5" data-name="Path 5" d="M1097.232,216.3a22.64,22.64,0,1,0,0,32.017l-2.564-2.564a19.014,19.014,0,1,1,0-26.889Z" transform="translate(-1051.223 -202.308)" fill="#191919"/>
  <path id="Path_6" data-name="Path 6" d="M1084.752,193.411a30,30,0,1,0,0,42.426l-2.564-2.564a26.374,26.374,0,1,1,0-37.3Z" transform="translate(-1033.539 -184.624)" fill="#191919"/>
  <path id="Path_7" data-name="Path 7" d="M1107.013,241.533l2.564-2.564a15.339,15.339,0,1,0,0,21.693l-2.564-2.564a11.713,11.713,0,1,1,0-16.565Z" transform="translate(-1068.73 -219.815)" fill="#191919"/>
</svg>
